<svg xmlns="http://www.w3.org/2000/svg" width="94.074" height="15.982" viewBox="0 0 94.074 15.982">
  <g id="Rating" transform="translate(-232 -464.882)">
    <path id="Tracé_157" data-name="Tracé 157" d="M7.342,0,9.637,4.589l5.048.734L11.013,8.9l.826,5.048-4.5-2.386-4.5,2.386L3.671,8.9,0,5.323l5.048-.734Z" transform="translate(232 466)" fill="#ffbd00"/>
    <path id="Tracé_158" data-name="Tracé 158" d="M7.342,0,9.637,4.589l5.048.734L11.013,8.9l.826,5.048-4.5-2.386-4.5,2.386L3.671,8.9,0,5.323l5.048-.734Z" transform="translate(251.579 466)" fill="#ffbd00"/>
    <path id="Tracé_159" data-name="Tracé 159" d="M7.342,0,9.637,4.589l5.048.734L11.013,8.9l.826,5.048-4.5-2.386-4.5,2.386L3.671,8.9,0,5.323l5.048-.734Z" transform="translate(271.158 466)" fill="#ffbd00"/>
    <path id="Tracé_160" data-name="Tracé 160" d="M7.342,0,9.637,4.589l5.048.734L11.013,8.9l.826,5.048-4.5-2.386-4.5,2.386L3.671,8.9,0,5.323l5.048-.734Z" transform="translate(290.737 466)" fill="#ffbd00"/>
    <path id="Tracé_161" data-name="Tracé 161" d="M7.342,0,9.637,4.589l5.048.734L11.013,8.9l.826,5.048-4.5-2.386-4.5,2.386L3.671,8.9,0,5.323l5.048-.734Z" transform="translate(310.316 466)" fill="#ffd96d" stroke="#ffd96d" stroke-width="1" opacity="0.5"/>
  </g>
</svg>
